<?xml version="1.0" encoding="utf-8"?>
<!-- Generator: Adobe Illustrator 23.0.1, SVG Export Plug-In . SVG Version: 6.00 Build 0)  -->
<svg version="1.1" xmlns="http://www.w3.org/2000/svg" xmlns:xlink="http://www.w3.org/1999/xlink" x="0px" y="0px"
	 viewBox="0 0 500 410" style="enable-background:new 0 0 500 410;" xml:space="preserve">
<style type="text/css">
	.st0{display:none;}
	.st1{fill:none;stroke:#FFFFFF;stroke-miterlimit:10;}
	.st2{display:inline;}
	.st3{fill:#FFFFFF;stroke:#000000;stroke-miterlimit:10;}
	.st4{display:none;fill:#00FF91;}
	.st5{fill:#00FF91;}
</style>
<g id="Layer_1" class="st0">
	<image style="overflow:visible;" width="542" height="446" xlink:href="50D76435.jpg"  transform="matrix(0.9225 0 0 0.9193 0 0)">
	</image>
	<rect class="st1" width="500" height="410"/>
	<g class="st2">
		<rect y="0" class="st3" width="100" height="102.5"/>
		<rect x="100" y="0" class="st3" width="100" height="102.5"/>
		<rect x="200" y="0" class="st3" width="100" height="102.5"/>
		<rect x="300" y="0" class="st3" width="100" height="102.5"/>
		<rect x="400" y="0" class="st3" width="100" height="102.5"/>
		<rect y="102.5" class="st3" width="100" height="102.5"/>
		<rect x="100" y="102.5" class="st3" width="100" height="102.5"/>
		<rect x="200" y="102.5" class="st3" width="100" height="102.5"/>
		<rect x="300" y="102.5" class="st3" width="100" height="102.5"/>
		<rect x="400" y="102.5" class="st3" width="100" height="102.5"/>
		<rect y="205" class="st3" width="100" height="102.5"/>
		<rect x="100" y="205" class="st3" width="100" height="102.5"/>
		<rect x="200" y="205" class="st3" width="100" height="102.5"/>
		<rect x="300" y="205" class="st3" width="100" height="102.5"/>
		<rect x="400" y="205" class="st3" width="100" height="102.5"/>
		<rect y="307.5" class="st3" width="100" height="102.5"/>
		<rect x="100" y="307.5" class="st3" width="100" height="102.5"/>
		<rect x="200" y="307.5" class="st3" width="100" height="102.5"/>
		<rect x="300" y="307.5" class="st3" width="100" height="102.5"/>
		<rect x="400" y="307.5" class="st3" width="100" height="102.5"/>
	</g>
</g>
<g id="Layer_2">
	<rect y="49" class="st4" width="500" height="5"/>
	<rect y="150" class="st4" width="500" height="5"/>
	<rect y="254" class="st5" width="500" height="5"/>
	<rect y="356" class="st4" width="500" height="5"/>
</g>
</svg>
