<svg xmlns="http://www.w3.org/2000/svg" viewBox="0 0 256.28 267.15">
  <title>Asset 10</title>
  <g id="Layer_2" data-name="Layer 2">
    <g id="content">
      <g>
        <rect width="256.28" height="267.15" fill="#58595b"/>
        <polygon points="256.28 145.27 209.47 91.5 158.33 116.09 56.08 198.75 112.74 266.85 256.28 266.85 256.28 145.27" fill="#404041"/>
        <g>
          <path d="M175.24,116.72C154.65,120,136.1,111,134.88,103.37s13.8-20.86,34.4-24.13S209.47,91.5,209.47,91.5,195.84,113.45,175.24,116.72Z" fill="#8dc540"/>
          <path d="M169.32,79.27c-20.59,3.27-35.61,16.48-34.4,24.13l74.59-11.86S189.92,76,169.32,79.27Z" fill="#d4e065"/>
          <path d="M150.69,63.9c2,20.76-8.11,38.72-15.81,39.47s-20-15.06-22-35.82,14.71-39.36,14.71-39.36S148.69,43.14,150.69,63.9Z" fill="#b7d335"/>
          <path d="M112.91,67.55c2,20.76,14.27,36.56,22,35.82l-7.26-75.18S110.9,46.79,112.91,67.55Z" fill="#d4e065"/>
          <path d="M173,84.62c-12.4,16.77-31.94,23.35-38.16,18.75s-4.76-24.55,7.65-41.32,37.27-19.4,37.27-19.4S185.45,67.86,173,84.62Z" fill="#b7d335"/>
          <path d="M142.53,62.05c-12.41,16.77-13.87,36.71-7.65,41.32L179.8,42.65S154.93,45.28,142.53,62.05Z" fill="#d0e298"/>
          <path d="M56.08,198.75C50,196.44,30.85,86.17,75.49,74.52s105.46,38.17,110,80.88S93.61,213,56.08,198.75Z" fill="#a61e2d"/>
          <path d="M185.48,155.4c-2.34-22.13-19.81-46.16-42.29-62.57L56.08,198.75C93.61,213,190,198.1,185.48,155.4Z" fill="#751e2d"/>
          <path d="M77.11,91.56c-1.3,2.64-3.63,4.15-5.21,3.38s-1.79-3.55-.49-6.19,5.21-3.38,5.21-3.38S78.41,88.91,77.11,91.56Z" fill="#362b25"/>
          <path d="M114.14,111c-1.62,2.46-4.12,3.68-5.59,2.71s-1.34-3.74.28-6.2,5.59-2.71,5.59-2.71S115.76,108.54,114.14,111Z" fill="#362b25"/>
          <path d="M59.17,134.47c-1.09,2.74-3.29,4.43-4.92,3.78s-2.07-3.39-1-6.13,4.92-3.78,4.92-3.78S60.26,131.74,59.17,134.47Z" fill="#362b25"/>
          <path d="M64,108c-1.19,2.7-3.45,4.31-5.06,3.61s-1.94-3.47-.76-6.16,5.06-3.61,5.06-3.61S65.14,105.27,64,108Z" fill="#362b25"/>
          <path d="M98.57,135.7C96.76,138,94.17,139,92.79,138s-1.05-3.84.76-6.16,5.79-2.26,5.79-2.26S100.38,133.38,98.57,135.7Z" fill="#362b25"/>
          <path d="M77.06,132.59c-1.44,2.57-3.85,4-5.38,3.1s-1.6-3.64-.16-6.21,5.38-3.1,5.38-3.1S78.5,130,77.06,132.59Z" fill="#362b25"/>
          <path d="M66.42,179.4c-1.54,2.51-4,3.81-5.5,2.89s-1.46-3.7.08-6.21,5.5-2.89,5.5-2.89S68,176.89,66.42,179.4Z" fill="#362b25"/>
          <path d="M90.45,111.61c-1.51,2.54-4,3.87-5.46,3s-1.51-3.67,0-6.21,5.45-3,5.45-3S92,109.08,90.45,111.61Z" fill="#362b25"/>
          <path d="M102.6,89.58c-1.51,2.54-3.95,3.87-5.46,3s-1.51-3.68,0-6.21,5.45-3,5.45-3S104.1,87.05,102.6,89.58Z" fill="#362b25"/>
          <path d="M61.15,158.73c-1.52,2.52-4,3.83-5.47,2.93s-1.49-3.69,0-6.21,5.47-2.93,5.47-2.93S62.67,156.21,61.15,158.73Z" fill="#362b25"/>
          <path d="M82.37,159c-1.82,2.32-4.41,3.33-5.79,2.25s-1-3.84.78-6.16,5.79-2.25,5.79-2.25S84.18,156.65,82.37,159Z" fill="#362b25"/>
          <g>
            <path d="M161.09,160.32c-2.35,1.78-3.4,4.35-2.34,5.75s3.81,1.1,6.17-.68,2.34-5.75,2.34-5.75S163.44,158.54,161.09,160.32Z" fill="#362b25"/>
            <path d="M135.05,127.59c-2.12,2-2.84,4.74-1.62,6s3.93.62,6-1.44,1.62-6,1.62-6S137.16,125.54,135.05,127.59Z" fill="#362b25"/>
            <path d="M122.3,186c-2.49,1.59-3.74,4.07-2.79,5.55s3.72,1.4,6.2-.19,2.79-5.54,2.79-5.54S124.78,184.4,122.3,186Z" fill="#362b25"/>
            <path d="M147.43,176.32c-2.43,1.67-3.59,4.19-2.59,5.64s3.77,1.26,6.19-.41,2.6-5.64,2.6-5.64S149.86,174.65,147.43,176.32Z" fill="#362b25"/>
            <path d="M113.7,147.52c-1.94,2.21-2.45,4.94-1.13,6.1s4,.31,5.91-1.91,1.13-6.1,1.13-6.1S115.65,145.31,113.7,147.52Z" fill="#362b25"/>
            <path d="M120.79,168.06c-2.25,1.9-3.16,4.52-2,5.87s3.87.89,6.13-1,2-5.86,2-5.86S123.05,166.16,120.79,168.06Z" fill="#362b25"/>
            <path d="M76.81,187.29c-2.18,2-3,4.64-1.81,5.94s3.91.74,6.09-1.24,1.8-5.94,1.8-5.94S79,185.31,76.81,187.29Z" fill="#362b25"/>
            <path d="M138.89,151c-2.21,2-3.06,4.6-1.89,5.91s3.89.8,6.1-1.15,1.89-5.91,1.89-5.91S141.09,149,138.89,151Z" fill="#362b25"/>
            <path d="M158.25,134.92c-2.21,2-3.06,4.59-1.89,5.91s3.89.8,6.1-1.15,1.89-5.92,1.89-5.92S160.46,133,158.25,134.92Z" fill="#362b25"/>
            <path d="M98.1,188.59c-2.19,2-3,4.62-1.85,5.93s3.9.77,6.09-1.2,1.85-5.93,1.85-5.93S100.29,186.62,98.1,188.59Z" fill="#362b25"/>
            <path d="M93.88,167.79c-1.94,2.22-2.44,5-1.12,6.11s4,.3,5.91-1.92,1.12-6.11,1.12-6.11S95.82,165.57,93.88,167.79Z" fill="#362b25"/>
          </g>
        </g>
      </g>
    </g>
  </g>
</svg>
