<svg xmlns="http://www.w3.org/2000/svg" viewBox="0 0 256.28 267.15">
  <title>Asset 4</title>
  <g id="Layer_2" data-name="Layer 2">
    <g id="content">
      <g>
        <rect width="256.28" height="267.15" fill="#58595b"/>
        <path d="M146.17,49.7a18.43,18.43,0,1,1-18.43-18.43A18.43,18.43,0,0,1,146.17,49.7Z" fill="#404041"/>
        <polygon points="256.28 135.99 142.95 31.29 146.39 54.42 127.74 69.7 123.49 179.37 46.95 207.04 112.18 267.15 256.28 267.15 256.28 135.99" fill="#404041"/>
        <g>
          <path d="M128.14,26.07a23.63,23.63,0,1,0,23.62,23.62A23.63,23.63,0,0,0,128.14,26.07Zm0,36a12.34,12.34,0,1,1,12.33-12.34A12.34,12.34,0,0,1,128.14,62Z" fill="#f9a61d"/>
          <path d="M109.88,185.76v37.06a18.26,18.26,0,1,0,36.51,0V185.76Z" fill="#f37922"/>
          <path d="M208.52,207v-7.76a25.4,25.4,0,0,0-25.4-25.4H72.35A25.4,25.4,0,0,0,47,199.28V207Z" fill="#f58b21"/>
          <path d="M47,199.28V207H208.52v-7.76a25.46,25.46,0,0,0-1.21-7.76H48.17A25.16,25.16,0,0,0,47,199.28Z" fill="#ce511e"/>
          <path d="M179.24,173.88V121.2a51.51,51.51,0,0,0-103,0v52.68Z" fill="#f9a61d"/>
          <path d="M179.24,173.88V121.2a51.5,51.5,0,0,0-51.5-51.5V173.88Z" fill="#f47722"/>
        </g>
      </g>
    </g>
  </g>
</svg>
