<svg xmlns="http://www.w3.org/2000/svg" viewBox="0 0 256.28 267.15">
  <title>Asset 9</title>
  <g id="Layer_2" data-name="Layer 2">
    <g id="content">
      <g>
        <rect width="256.28" height="267.15" fill="#58595b"/>
        <polygon points="256.28 141.32 217.55 100.53 184.09 115.82 72.98 205.78 117.11 266.85 256.28 266.85 256.28 141.32" fill="#404041"/>
        <g>
          <path d="M117.11,162.91c.44-2.66,11-33.62,11-33.62l-15.9-18.57s-23-1.77-24.32-2.22-49.19-7.8-49.19-7.8l43.94,43.8L73,205.78S116.67,165.56,117.11,162.91Z" fill="#f47722"/>
          <path d="M149,139.46c-2.21-2.65-4.86-6.19-6.19-6.63s-14.62-3.54-14.62-3.54L73,205.78l55.23-28.26,55.29,28.15s-20.84-39.67-22.61-41S151.16,142.12,149,139.46Z" fill="#cf571c"/>
          <polygon points="217.55 100.53 156.26 90.92 128.14 129.29 183.5 205.67 173.69 144.41 217.55 100.53" fill="#f47722"/>
          <path d="M128.08,35.65s-11,36.59-11,38.36,11,55.28,11,55.28l89.41-28.76-61.29-9.61Z" fill="#f9a61d"/>
          <polygon points="128.08 35.65 100 90.97 38.73 100.7 128.14 129.29 128.08 35.65" fill="#ffce38"/>
        </g>
      </g>
    </g>
  </g>
</svg>
