<svg xmlns="http://www.w3.org/2000/svg" viewBox="0 0 256.28 267.15">
  <title>Asset 8</title>
  <g id="Layer_2" data-name="Layer 2">
    <g id="content">
      <g>
        <rect width="256.28" height="267.15" fill="#58595b"/>
        <polygon points="183.31 115.82 128.12 222.98 168.12 266.85 256.28 266.85 256.28 131.94 228.67 104.7 183.31 115.82" fill="#404041"/>
        <g>
          <polygon points="29.42 104.76 129.51 221.78 226.85 104.76 29.42 104.76" fill="#a1d6f4"/>
          <polygon points="129.51 68.87 92.64 104.76 129.51 221.78 163.18 104.76 129.51 68.87" fill="#0097d6"/>
          <polygon points="226.85 104.76 29.42 104.76 68.59 69.1 187.23 69.1 226.85 104.76" fill="#389dd8"/>
          <path d="M129.54,69.1H68.59l24,35.66,36.87-35.5Z" fill="#9ddcf6"/>
          <path d="M129.63,69.1l-.12.16,33.67,35.5,24-35.66Z" fill="#9ddcf6"/>
          <path d="M228.67,104.93a1.77,1.77,0,0,0,0-.23c0-.1,0-.2,0-.3a1.55,1.55,0,0,0-.07-.23,1.39,1.39,0,0,0-.06-.19.35.35,0,0,0,0-.08l-.13-.2a2.11,2.11,0,0,0-.19-.23l-.06-.08L188.46,67.74s-.07,0-.09-.06a2,2,0,0,0-.4-.23l-.15-.07a1.67,1.67,0,0,0-.59-.11H130.36a1.89,1.89,0,0,0-.81-.23,2.11,2.11,0,0,0-.84.23H68.59a1.63,1.63,0,0,0-.59.11l-.16.07a1.63,1.63,0,0,0-.4.24.24.24,0,0,0-.08.06L28.19,103.4l-.06.08a1.45,1.45,0,0,0-.19.23,1.93,1.93,0,0,0-.13.21.18.18,0,0,0,0,.07,1.21,1.21,0,0,0-.05.18,1.83,1.83,0,0,0-.08.25,2.46,2.46,0,0,0,0,.28,1.92,1.92,0,0,0,0,.24,1.63,1.63,0,0,0,.07.3,1.13,1.13,0,0,0,0,.18l0,0a1.56,1.56,0,0,0,.16.28l.11.18,0,0L128.12,223l.1.07a2,2,0,0,0,.43.33l.17.09a1.82,1.82,0,0,0,.69.15h0a1.94,1.94,0,0,0,.68-.16l.17-.09a1.58,1.58,0,0,0,.43-.34l.1-.07,97.34-117s0,0,0,0a1.63,1.63,0,0,0,.11-.17c.06-.1.12-.19.17-.29s0,0,0,0a.47.47,0,0,0,0-.17A1.55,1.55,0,0,0,228.67,104.93ZM129.43,215.44,95.14,106.59h65.61Zm29.49-112.52H97.18l32.27-31.06Zm63.16,0H166.63l20.94-31ZM163,101.83l-29-30.9h49.82Zm-38.18-30.9-31.84,31L72,70.93Zm-56.52.95,20.94,31h-55Zm23,34.71,33.77,107.18L33.4,106.59Zm42.4,107.31,30.87-107.31H223Z" fill="#fff"/>
          <polygon points="190.23 202.27 186.16 185.31 169.21 181.24 186.16 177.18 190.23 160.22 194.3 177.18 211.25 181.24 194.3 185.31 190.23 202.27" fill="#fff"/>
          <polygon points="56.41 71.12 53.07 57.2 39.15 53.86 53.07 50.53 56.41 36.6 59.75 50.53 73.67 53.86 59.75 57.2 56.41 71.12" fill="#fff"/>
          <polygon points="43.98 84.65 42.21 77.27 34.83 75.5 42.21 73.73 43.98 66.35 45.75 73.73 53.13 75.5 45.75 77.27 43.98 84.65" fill="#fff"/>
          <polygon points="209.63 212.51 207.19 202.36 197.04 199.93 207.19 197.49 209.63 187.34 212.06 197.49 222.22 199.93 212.06 202.36 209.63 212.51" fill="#fff"/>
          <polygon points="175.36 209.51 173.96 203.67 168.12 202.27 173.96 200.87 175.36 195.02 176.76 200.87 182.61 202.27 176.76 203.67 175.36 209.51" fill="#fff"/>
        </g>
      </g>
    </g>
  </g>
</svg>
