<svg xmlns="http://www.w3.org/2000/svg" viewBox="0 0 256.28 267.15">
  <title>Asset 11</title>
  <g id="Layer_2" data-name="Layer 2">
    <g id="content">
      <g>
        <rect width="256.28" height="267.15" fill="#58595b"/>
        <polygon points="256.28 126.88 160.52 36.74 117.01 96.76 54.7 141.38 164.99 266.85 256.28 266.85 256.28 126.88" fill="#404041"/>
        <g>
          <path d="M155.59,117.28C137.82,98,117.85,96.8,117,96.76a7.41,7.41,0,1,0-.73,14.81c.14,0,14.74-3.81,28.16,10.76,17.25,18.74,26.26,32,26.26,75.66,0,12.13-13.19,48.07,3.72,48.07,18,0,19.32-25,18-43.29C188.72,152.78,175.87,139.31,155.59,117.28Z" fill="#37b34a"/>
          <path d="M159.94,35.58C143.72,16.9,125.14,37,125.14,37S106.56,16.9,90.35,35.58s20.71,60.94,34.79,60.94C140,96.52,176.13,54.24,159.94,35.58Z" fill="#006838"/>
          <path d="M155.76,41.82a1.57,1.57,0,0,1-1.2-.75c-6.65-10.21-17.27-4.11-17.72-3.84a1.6,1.6,0,0,1-2.25-.69,1.84,1.84,0,0,1,.67-2.41c4.71-2.77,15.38-5.32,22,4.91a1.84,1.84,0,0,1-.43,2.46,1.6,1.6,0,0,1-1.1.32Z" fill="#37b34a"/>
          <path d="M160.24,44.77A1.77,1.77,0,1,1,158.47,43,1.77,1.77,0,0,1,160.24,44.77Z" fill="#37b34a"/>
          <path d="M90.9,177c16.22,18.68,34.8-1.4,34.8-1.4s18.57,20.07,34.79,1.39-20.73-60.94-34.81-60.93C110.79,116.09,74.7,158.37,90.9,177Z" fill="#006838"/>
          <path d="M95.07,170.79a1.62,1.62,0,0,1,1.21.74c6.65,10.22,17.27,4.11,17.72,3.85a1.6,1.6,0,0,1,2.25.68,1.86,1.86,0,0,1-.67,2.41c-4.71,2.78-15.38,5.33-22-4.9a1.86,1.86,0,0,1,.43-2.46,1.63,1.63,0,0,1,1.1-.32Z" fill="#37b34a"/>
          <path d="M90.6,167.84a1.77,1.77,0,1,1,1.77,1.77A1.77,1.77,0,0,1,90.6,167.84Z" fill="#37b34a"/>
          <path d="M196.14,140.82c18.68-16.22-1.39-34.79-1.39-34.79s20.07-18.58,1.39-34.8S135.2,92,135.2,106C135.2,120.92,177.48,157,196.14,140.82Z" fill="#006838"/>
          <path d="M189.9,136.65a1.63,1.63,0,0,1,.75-1.21c10.21-6.64,4.11-17.26,3.85-17.71a1.59,1.59,0,0,1,.68-2.25,1.84,1.84,0,0,1,2.4.66c2.78,4.71,5.33,15.38-4.9,22a1.85,1.85,0,0,1-2.46-.43,1.61,1.61,0,0,1-.32-1.1Z" fill="#37b34a"/>
          <path d="M187,141.12a1.77,1.77,0,1,1,1.77-1.77A1.77,1.77,0,0,1,187,141.12Z" fill="#37b34a"/>
          <path d="M54.69,71.79C36,88,56.09,106.58,56.09,106.58S36,125.16,54.7,141.38s60.94-20.73,60.93-34.81C115.63,91.68,73.35,55.59,54.69,71.79Z" fill="#006838"/>
          <path d="M60.93,76a1.62,1.62,0,0,1-.74,1.21C50,83.81,56.08,94.43,56.34,94.88a1.6,1.6,0,0,1-.68,2.25,1.84,1.84,0,0,1-2.41-.67c-2.78-4.71-5.33-15.37,4.9-22a1.84,1.84,0,0,1,2.46.43,1.6,1.6,0,0,1,.32,1.1Z" fill="#37b34a"/>
          <path d="M63.88,71.48a1.77,1.77,0,1,1-1.77,1.77A1.77,1.77,0,0,1,63.88,71.48Z" fill="#37b34a"/>
          <path d="M158.13,106.06a33,33,0,1,1-33-33A33,33,0,0,1,158.13,106.06Z" fill="#006838"/>
          <path d="M139.76,106.06a14.59,14.59,0,1,1-14.59-14.59A14.59,14.59,0,0,1,139.76,106.06Z" fill="#37b34a"/>
          <path d="M146.21,64.15c-9.81-11.31-21.06.84-21.06.84s-11.24-12.15-21.05-.84S116.63,101,125.15,101C134.17,101,156,75.44,146.21,64.15Z" fill="#37b34a"/>
          <path d="M167.08,127.1c11.31-9.82-.84-21.06-.84-21.06s12.15-11.24.84-21.06S130.2,97.52,130.2,106C130.2,115.05,155.79,136.9,167.08,127.1Z" fill="#37b34a"/>
          <path d="M104.13,148c9.82,11.31,21.06-.85,21.06-.85s11.24,12.16,21.06.85-12.54-36.88-21.06-36.88C116.18,111.09,94.33,136.67,104.13,148Z" fill="#37b34a"/>
          <path d="M83.26,85c-11.31,9.81.85,21.06.85,21.06S72,117.32,83.26,127.14s36.88-12.54,36.88-21.06C120.14,97.07,94.56,75.21,83.26,85Z" fill="#37b34a"/>
          <path d="M133.22,106.06a8,8,0,1,1-8-8A8,8,0,0,1,133.22,106.06Z" fill="#006838"/>
        </g>
      </g>
    </g>
  </g>
</svg>
