<svg xmlns="http://www.w3.org/2000/svg" viewBox="0 0 256.28 267.15">
  <title>Asset 6</title>
  <g id="Layer_2" data-name="Layer 2">
    <g id="content">
      <g>
        <rect width="256.28" height="267.15" fill="#58595b"/>
        <path d="M256.28,104.12,194.39,45.54,184.88,55.6,168.58,69c8.91,17,19,33.59,24.3,52.12,5.77,20.21,6.53,43.52-5.29,61.8-16.69,25.82-48.06,39.5-78.61,40.26l-32.09-.77,44.23,44.79H256.28Z" fill="#404041"/>
        <path d="M82.11,189.22c-1,1.61,15.52-3.17,14.37-1.65q2.46,1.34,4.9,2.72c12,6.78,23.5,12.17,37.31,14.37a100.37,100.37,0,0,0,29.77.05l24.42-78.64L106.29,45.54,97.06,55.6,80.76,69c8.91,17-17,59.08-11.71,77.6C74.81,166.77,93.93,170.94,82.11,189.22Z" fill="#404041"/>
        <g>
          <path d="M171.69,68.43,148.15,73s71.44,111.73-20.93,111.73C39.83,184.74,106.29,73,106.29,73L82.75,68.43s-35.31,43.16-36,104,80.44,59.52,80.44,59.52,81.09,1.3,80.44-59.52S171.69,68.43,171.69,68.43Z" fill="#f6921e"/>
          <g>
            <path d="M153.62,72,148.15,73s23.55,36.85,26.12,68.22C176.51,117.45,161.92,87,153.62,72Z" fill="#f05a28"/>
            <path d="M127.22,221.49s-76.46,1.22-80.29-54.4c-.07,1.76-.13,3.53-.15,5.32-.65,60.82,80.44,59.52,80.44,59.52s81.09,1.3,80.44-59.52c0-1.79-.07-3.56-.15-5.32C203.69,222.71,127.22,221.49,127.22,221.49Z" fill="#f05a28"/>
            <path d="M82.32,140.55c2.38-31.22,24-67.54,24-67.54l-5.11-1C93.54,87,80.28,116.91,82.32,140.55Z" fill="#f05a28"/>
          </g>
          <rect x="59.21" y="45.54" width="47.09" height="27.47" fill="#f05a28"/>
          <rect x="148.15" y="45.54" width="47.09" height="27.47" fill="#f05a28"/>
          <circle cx="100.41" cy="204.87" r="10.79" transform="translate(-107.34 299.17) rotate(-88.3)" fill="#fff"/>
          <path d="M76.89,171.84A7.85,7.85,0,1,1,69.05,164,7.84,7.84,0,0,1,76.89,171.84Z" fill="#fff"/>
          <path d="M73.59,129.93a5.89,5.89,0,1,1-5.88-5.88A5.89,5.89,0,0,1,73.59,129.93Z" fill="#fff"/>
          <circle cx="156.02" cy="204.87" r="10.79" transform="translate(-53.36 354.78) rotate(-88.31)" fill="#fff"/>
          <path d="M179.54,171.84a7.85,7.85,0,1,0,7.84-7.85A7.84,7.84,0,0,0,179.54,171.84Z" fill="#fff"/>
          <path d="M182.84,129.93a5.89,5.89,0,1,0,5.88-5.88A5.89,5.89,0,0,0,182.84,129.93Z" fill="#fff"/>
        </g>
      </g>
    </g>
  </g>
</svg>
