<svg xmlns="http://www.w3.org/2000/svg" viewBox="0 0 256.28 267.15">
  <title>Asset 7</title>
  <g id="Layer_2" data-name="Layer 2">
    <g id="content">
      <g>
        <rect width="256.28" height="267.15" fill="#58595b"/>
        <path d="M174.31,28.82l.53,6.13-.49-.69L149.75,57.6s-14.43,1.33-18,3.33-12,7.61-12,7.61L91.66,92.37,82,133.58s5.48,25.36,6.15,29.69-.67,14.95,7.33,18c3.79,1.43,6.2,4.91,8.27,8L53.66,216.15l44.34,51H256.28V93.6Zm1.36,121.89,4.25-12.7,3.51-4.46L184.51,146Z" fill="#404041"/>
        <g>
          <path d="M163.16,65c-13,13.26-31.06,16.65-36,11.82S126,54.58,139,41.33s35.28-12.51,35.28-12.51S176.17,51.75,163.16,65Z" fill="#8dc540"/>
          <path d="M139.08,41.33c-13,13.25-16.77,30.67-11.85,35.5l47.12-48S152.09,28.07,139.08,41.33Z" fill="#d4e065"/>
          <path d="M117.6,40.19c12.43,13.81,14.71,32,9.58,36.64s-22.27-.21-34.7-14-10.32-36-10.32-36S105.17,26.39,117.6,40.19Z" fill="#b7d335"/>
          <path d="M92.48,62.82c12.43,13.8,29.58,18.62,34.7,14l-45-50S80,49,92.48,62.82Z" fill="#d4e065"/>
          <path d="M144.58,43.19c0,18.58-10.5,33.64-17.4,33.64s-16.41-15.06-16.41-33.64S127.18,9.56,127.18,9.56,144.58,24.62,144.58,43.19Z" fill="#b7d335"/>
          <path d="M110.77,43.19c0,18.58,9.52,33.64,16.41,33.64V9.56S110.77,24.62,110.77,43.19Z" fill="#d0e298"/>
          <path d="M79.09,151.37c-1.47-.35,2.45-.09,3.16-.17,1.41-.15,2.82-.34,4.24-.48a30,30,0,0,1,3.64-.14V117c0-19.51,17.05-35.39,38-35.39s38,15.88,38,35.39V119a35.18,35.18,0,0,1,11.14-1.06,12.44,12.44,0,0,1,2.63.45V117c0-27.1-23.23-49.15-51.78-49.15S76.36,89.94,76.36,117v34A11.52,11.52,0,0,1,79.09,151.37Z" fill="#fff"/>
          <path d="M173.13,117.89c2.14-26.08-22-42.39-44.82-42.39-25,0-44.74,12.87-44.74,49.16v26.45c1.15-.14,1.77-.28,2.92-.39a30,30,0,0,1,3.64-.14V117c0-19.51,17.05-35.39,38-35.39s38,15.88,38,35.39V119A35.2,35.2,0,0,1,173.13,117.89Z" fill="#c6b9b6"/>
          <path d="M124.21,187.82a41,41,0,1,1-41-41A41,41,0,0,1,124.21,187.82Z" fill="#b7322e"/>
          <path d="M124.53,187.82a41,41,0,0,0-41-41v81.93A41,41,0,0,0,124.53,187.82Z" fill="#b1142f"/>
          <path d="M69.81,169.15a7.21,7.21,0,1,1-7.21-7.21A7.21,7.21,0,0,1,69.81,169.15Z" fill="#fff"/>
          <path d="M213.67,149.48a41,41,0,1,1-41-41A41,41,0,0,1,213.67,149.48Z" fill="#b7322e"/>
          <path d="M214,149.48a41,41,0,0,0-41-41v81.93A41,41,0,0,0,214,149.48Z" fill="#b1142f"/>
          <path d="M159.27,130.8a7.21,7.21,0,1,1-7.21-7.2A7.21,7.21,0,0,1,159.27,130.8Z" fill="#fff"/>
        </g>
      </g>
    </g>
  </g>
</svg>
