<svg xmlns="http://www.w3.org/2000/svg" viewBox="0 0 256.28 267.15">
  <title>Asset 1</title>
  <g id="Layer_2" data-name="Layer 2">
    <g id="content">
      <g>
        <rect width="256.28" height="267.15" fill="#58595b"/>
        <polygon points="256.28 102.66 206.01 31.54 184.51 116.12 30.63 155.24 123.94 267.15 256.28 267.15 256.28 102.66" fill="#404041"/>
        <g>
          <path d="M176,175.21A100.11,100.11,0,0,1,36.51,151.07l-5.88,4.15A107.31,107.31,0,1,0,206,31.54l-5.88,4.15A100.12,100.12,0,0,1,176,175.21Z" fill="#37b34a"/>
          <path d="M176,175.21A100.12,100.12,0,0,0,200.15,35.69l-5.39,3.8A93.52,93.52,0,1,1,41.9,147.27l-5.39,3.8A100.11,100.11,0,0,0,176,175.21Z" fill="#bcd431"/>
          <path d="M172.22,169.82A93.53,93.53,0,0,0,194.76,39.49L41.9,147.27A93.51,93.51,0,0,0,172.22,169.82Z" fill="#b7322e"/>
          <path d="M172.22,169.82A93.53,93.53,0,0,0,194.76,39.49L118.33,93.38Z" fill="#b1142f"/>
          <path d="M164.42,150.75c2.62,3.72,3,8,.73,9.56s-6.14-.18-8.76-3.9-.74-9.57-.74-9.57S161.79,147,164.42,150.75Z" fill="#362b25"/>
          <path d="M130.14,166.86c-.2,4.55-2.56,8.14-5.27,8s-4.74-3.9-4.55-8.45,5.26-8,5.26-8S130.33,162.31,130.14,166.86Z" fill="#362b25"/>
          <path d="M96.85,164c-2.15,4-5.83,6.23-8.22,4.95s-2.59-5.57-.44-9.59,8.22-4.94,8.22-4.94S99,160,96.85,164Z" fill="#362b25"/>
          <path d="M70.65,148c-3.06,3.37-7.17,4.63-9.18,2.81s-1.16-6,1.9-9.41,9.18-2.81,9.18-2.81S73.71,144.65,70.65,148Z" fill="#362b25"/>
          <path d="M183,129.59c4.35,1.34,8.52.33,9.32-2.26s-2.08-5.78-6.43-7.12-9.32,2.26-9.32,2.26S178.65,128.25,183,129.59Z" fill="#362b25"/>
          <path d="M191.51,97.29c4.5-.68,7.83-3.4,7.43-6.09s-4.38-4.3-8.89-3.63-7.42,6.08-7.42,6.08S187,98,191.51,97.29Z" fill="#362b25"/>
          <path d="M185.24,67.23c4.2-1.74,6.77-5.19,5.73-7.69s-5.3-3.12-9.5-1.38-5.73,7.7-5.73,7.7S181,69,185.24,67.23Z" fill="#362b25"/>
          <path d="M142.32,121.07c1.93,2.74,2.18,5.89.54,7s-4.52-.14-6.45-2.88-.54-7-.54-7S140.39,118.33,142.32,121.07Z" fill="#362b25"/>
          <path d="M117.08,132.93c-.14,3.35-1.88,6-3.87,5.91s-3.5-2.87-3.35-6.22,3.87-5.91,3.87-5.91S117.23,129.58,117.08,132.93Z" fill="#362b25"/>
          <path d="M92.58,130.85c-1.59,3-4.29,4.58-6.06,3.64s-1.9-4.1-.32-7.06,6-3.64,6-3.64S94.16,127.89,92.58,130.85Z" fill="#362b25"/>
          <path d="M156,105.49c3.2,1,6.28.25,6.87-1.66s-1.53-4.26-4.74-5.25-6.86,1.67-6.86,1.67S152.8,104.5,156,105.49Z" fill="#362b25"/>
          <path d="M162.27,81.71c3.31-.5,5.76-2.5,5.46-4.48s-3.22-3.17-6.53-2.67S155.73,79,155.73,79,159,82.21,162.27,81.71Z" fill="#362b25"/>
        </g>
      </g>
    </g>
  </g>
</svg>
