<svg xmlns="http://www.w3.org/2000/svg" viewBox="0 0 256.28 267.15">
  <title>Asset 5</title>
  <g id="Layer_2" data-name="Layer 2">
    <g id="content">
      <g>
        <rect width="256.28" height="267.15" fill="#58595b"/>
        <polygon points="256.28 97.5 199.37 45.54 189.85 55.6 171.2 70.88 134.88 144.09 112.74 227.69 149.24 267.15 256.28 267.15 256.28 97.5" fill="#404041"/>
        <path d="M204.34,60.61c-4,6.85-7.92,13.77-11.82,20.69a63.25,63.25,0,0,1-.45,10.27c-.83,7.6-1.08,15.11-1.59,22.73-.67,9.76-1.62,19.48-.64,29.25.57,5.68-5.18,10.45-10.45,10.45-6.12,0-9.88-4.78-10.45-10.45-.85-8.47-.25-16.88.36-25.35.51-7,.4-14,1.22-21,0-.13,0-.28,0-.42-4-2.79-6.36-8-3.2-13.54.63-1.09,1.24-2.18,1.86-3.28a67.06,67.06,0,0,0-7-1.74c-6.4-1.25-12.72-3-19.22-3.64-8-.81-16.11-1.06-24.19-1.1-7.28,0-14.54-.31-21.81-.36-6,0-12.73-.19-18.33,2.42a12.74,12.74,0,0,1-6.84,1.18L58.66,118l35.73,45.52,110.35-7.2V59.94C204.61,60.17,204.47,60.38,204.34,60.61Z" fill="#404041"/>
        <g>
          <path d="M199.37,45.54a8.55,8.55,0,0,0-6.43-2.92H181.56a8.54,8.54,0,0,0-7.88,5.28s-2.05,4.5-8.67,4.5A26.88,26.88,0,0,1,155,50c-10.4-4.32-23.94-9.28-36.38-9.28-10.74,0-19.71,3.7-26.45,10.81v-.4a8.54,8.54,0,0,0-8.54-8.54H63.34a8.55,8.55,0,0,0-8.54,8.54v59.73a8.54,8.54,0,0,0,8.54,8.54H83.6a8.54,8.54,0,0,0,8.54-8.54v-14c0-1.06.35-10.41,4.66-10.52a72.19,72.19,0,0,1,15,1.43,100.65,100.65,0,0,0,22.82,1.76,58.28,58.28,0,0,0,20-4.3l1.12-.42a62.37,62.37,0,0,1-11.89,11.9l-3.72,2.93C116.82,118,94,137.37,93,156.09a21.28,21.28,0,0,0-.34,3.76v44c0,13.76,12.68,24.95,28.27,24.95s28.27-11.19,28.27-24.95V164.15c.15-1.41,2-15.68,13.39-35.05,3.3-5.59,7.16-11,11.25-16.65,11.2-15.57,23.9-33.21,27.55-60.15A8.54,8.54,0,0,0,199.37,45.54Z" fill="#f6921e"/>
          <path d="M194.55,49.75a2.13,2.13,0,0,0-1.61-.72H181.56a2.14,2.14,0,0,0-2,1.31c0,.09-3.62,8.46-14.58,8.46a33.06,33.06,0,0,1-12.5-2.86c-9.85-4.09-22.61-8.79-33.92-8.79-12.26,0-21.42,5.54-27.22,16.45H85.74V51.16A2.13,2.13,0,0,0,83.6,49H63.34a2.13,2.13,0,0,0-2.13,2.13v59.73A2.13,2.13,0,0,0,63.34,113H83.6a2.14,2.14,0,0,0,2.14-2.14V96.75c.1-5,1.38-16.55,10.9-16.79a78.56,78.56,0,0,1,16.24,1.51,93.83,93.83,0,0,0,21.48,1.69,52.26,52.26,0,0,0,18.06-3.89c3.79-1.44,6.55-2.37,10.15-1.5,1.63.38,2,1.12,2.11,1.72.82,3.71-4.79,12.77-16.8,22.26l-3.75,3c-16.56,13-44.23,34.63-44.74,52.11a15.64,15.64,0,0,0-.32,3v44c0,10.23,9.81,18.55,21.87,18.55s21.87-8.32,21.87-18.55V163.89c0-.15,1.47-16.34,14.28-38,3.44-5.83,7.39-11.31,11.57-17.12,11.29-15.7,23-31.93,26.39-57.28A2.14,2.14,0,0,0,194.55,49.75Z" fill="#fff"/>
          <path d="M181.56,51.16s-6.76,16.35-29.87,6.75-47.28-16-59,7.83H83.6V51.16H63.34v59.73H83.6V96.7c.1-4.48,1.32-18.57,13-18.87,13.87-.36,21,3.91,37.69,3.2s19.92-7.47,28.8-5.34,1.43,15.65-13.86,27.74S101.82,139.19,101.52,157a13.15,13.15,0,0,0-.31,2.81v44c0,9.07,8.83,16.42,19.73,16.42s19.73-7.35,19.73-16.42V163.87c0-1.07,1.78-17.42,14.58-39.11s33.07-39.47,37.69-73.6Z" fill="#be1e2d"/>
          <g>
            <rect x="79.7" y="51.16" width="3.91" height="14.58" fill="#650708"/>
            <path d="M188.43,51.16c-5.51,31.81-24.75,49.13-37.09,70-12.8,21.69-14.58,38.05-14.58,39.12v39.93c0,9.07-8.83,16.42-19.73,16.42A22.17,22.17,0,0,1,104.57,213c3.55,4.37,9.55,7.25,16.37,7.25,10.9,0,19.73-7.35,19.73-16.42V163.87c0-1.07,1.78-17.42,14.58-39.11s33.07-39.47,37.69-73.6Z" fill="#650708"/>
            <path d="M134.27,81c16.6-.71,19.88-7.37,28.62-5.37-10.08-6.64-13.68,1.1-30.39,1.81s-24.36-5.33-39.83-3.2c-11.55,1.59-12.88,14.39-13,18.87v14.2H63.34v3.55H83.6V96.7c.1-4.48,1.32-18.57,13-18.87C110.45,77.47,117.56,81.74,134.27,81Z" fill="#650708"/>
          </g>
        </g>
      </g>
    </g>
  </g>
</svg>
